<svg version="1.2" xmlns="http://www.w3.org/2000/svg" viewBox="0 0 214 34" width="214" height="34">
	<title>logo-svg</title>
	<style>
		tspan { white-space:pre } 
		.s0 { fill: #e30b13 } 
		.s1 { fill: #ce080f } 
		.t2 { font-size: 24px;fill: #ffffff;font-weight: 800;font-family: "Inter-ExtraBold", "Inter" } 
	</style>
	<path id="Layer" fill-rule="evenodd" class="s0" d="m18 33q0 0 0 0zm0 0q1.2 0 2.3-0.2 1.1-0.1 2.3-0.5 1.1-0.3 2.1-0.8 1.1-0.5 2-1.1h7.3v2.6zm0 0c-8.9 0-16-7.2-16-16 0-8.8 7.1-16 16-16v5.8q-0.7 0-1.3 0.3-0.6 0.2-1 0.7-0.5 0.4-0.7 1-0.3 0.6-0.3 1.2 0 0.7 0.3 1.3 0.2 0.6 0.7 1 0.4 0.5 1 0.7 0.6 0.3 1.3 0.3v7.4q-0.7 0-1.3 0.3-0.6 0.2-1 0.7-0.5 0.4-0.7 1-0.3 0.6-0.3 1.2 0 0.7 0.3 1.3 0.2 0.6 0.7 1 0.4 0.5 1 0.7 0.6 0.3 1.3 0.3zm-5.8-13q0.6-0.3 1.1-0.7 0.4-0.5 0.7-1.1 0.2-0.6 0.2-1.2 0-0.7-0.2-1.3-0.3-0.5-0.7-1-0.5-0.5-1.1-0.7-0.6-0.2-1.2-0.3-0.6 0.1-1.2 0.3-0.6 0.2-1.1 0.7-0.4 0.5-0.7 1-0.2 0.6-0.2 1.3 0 0.6 0.2 1.2 0.3 0.6 0.7 1.1 0.5 0.4 1.1 0.7 0.6 0.2 1.2 0.2 0.6 0 1.2-0.2z"/>
	<path id="Layer" fill-rule="evenodd" class="s1" d="m26.7 30.4c-2.5 1.6-5.5 2.6-8.7 2.6v-5.8q0.6 0 1.2-0.3 0.6-0.2 1.1-0.7 0.4-0.4 0.7-1 0.2-0.6 0.2-1.2 0-0.7-0.2-1.3-0.3-0.6-0.7-1-0.5-0.5-1.1-0.7-0.6-0.3-1.2-0.3v-7.4q0.6 0 1.2-0.3 0.6-0.2 1.1-0.7 0.4-0.4 0.7-1 0.2-0.6 0.2-1.2 0-0.7-0.2-1.3-0.3-0.6-0.7-1-0.5-0.5-1.1-0.7-0.6-0.3-1.2-0.3v-5.8c8.8 0 16 7.2 16 16 0 5.6-2.9 10.6-7.3 13.4zm-3-16.4q-0.6 0.3-1 0.7-0.5 0.5-0.7 1.1-0.3 0.6-0.3 1.2 0 0.6 0.3 1.2 0.2 0.6 0.7 1.1 0.4 0.4 1 0.7 0.6 0.2 1.2 0.2 0.7 0 1.3-0.2 0.6-0.3 1-0.7 0.5-0.5 0.7-1.1 0.3-0.6 0.3-1.2 0-0.6-0.3-1.2-0.2-0.6-0.7-1.1-0.4-0.4-1-0.7-0.6-0.2-1.3-0.2-0.6 0-1.2 0.2z"/>
	<text id="MovieCinema" style="transform: matrix(1,0,0,1,40,26)" >
		<tspan x="0" y="0" class="t2">M</tspan><tspan  y="0" class="t2">o</tspan><tspan  y="0" class="t2">v</tspan><tspan  y="0" class="t2">i</tspan><tspan  y="0" class="t2">e</tspan><tspan  y="0" class="t2">C</tspan><tspan  y="0" class="t2">i</tspan><tspan  y="0" class="t2">n</tspan><tspan  y="0" class="t2">e</tspan><tspan  y="0" class="t2">m</tspan><tspan  y="0" class="t2">a
</tspan>
	</text>
</svg>